<svg id="Capa_1" enable-background="new 0 0 507.989 507.989" height="512" viewBox="0 0 507.989 507.989" width="512" xmlns="http://www.w3.org/2000/svg"><g><path d="m129.975 267.989h40v230h-40z" fill="#e2e9ee"/><path d="m169.975 114.989h-40v-30c0-11.046 8.954-20 20-20s20 8.954 20 20zm122 45.4-72 9.6v-160l72 9.6z" fill="#ff5a58"/><path d="m259.975 135.989c0 19.09 1.266 38.159 3.789 57.082l21.191 158.918h64l28.8-216c5.22-37.968-70.756-114.397-85.779-116.4z" fill="#fff"/><path d="m259.975 135.989c0 38.484 5.78 72 5.78 72l103.344-7.079 8.656-64.921c1.543-12.226-5.528-26.611-5.528-26.611zm98.58 144-9.6 72h-64l-9.6-72z" fill="#ff5a58"/><path d="m358.961 68.927c-17.939-23.562-50.74-57.261-65.664-59.251-26.817-3.521-54.982-7.486-72-9.6-5.93-.737-11.322 3.936-11.322 9.912v6.795l-35.936 50.31c-5.697-7.642-14.942-12.49-25.274-12.082-16.199.64-28.79 14.418-28.79 30.629v29.347c0 5.523 4.477 10 10 10h10v133h-10c-5.523 0-10 4.477-10 10v80c0 5.739 4.871 10.372 10.693 9.977 5.307-.361 9.307-5.016 9.307-10.334v-69.642h20v210h-20v-50c0-5.74-4.872-10.373-10.694-9.976-5.306.361-9.306 5.016-9.306 10.334v59.642c0 5.523 4.477 10 10 10h40c5.523 0 10-4.477 10-10v-230c0-5.523-4.477-10-10-10h-10v-133h10c3.855 0 7.201-2.182 8.869-5.378l31.131 43.583v6.796c0 5.976 5.211 10.649 11.144 9.934.08-.01 11.684-1.556 30.674-4.088.561 6.21 1.238 12.402 2.059 18.556l21.19 158.918c.662 4.969 4.9 8.679 9.912 8.679h64c5.012 0 9.25-3.71 9.912-8.679l28.795-215.959c2.376-17.272-7.281-40.293-28.7-68.423zm-198.986 36.062h-20v-20c0-5.514 4.486-10 10-10s10 4.486 10 10zm50 23.795-27.711-38.795 27.711-38.795zm126.186-56.415c8.865 10.725 16.088 20.969 21.4 30.209l-83.469 19.787 24.156-87.868c8.89 6.814 23.168 20.034 37.913 37.872zm-106.186 86.198v-137.156l49.249 6.832-28.901 105.127c.001.001.002.001.003.002-.227.838-.351 1.715-.351 2.617 0 6.602.163 13.226.461 19.85zm110.225 183.422h-46.49l-6.934-52h60.357zm9.6-72h-65.691l-7.034-52.753 80.494-5.518zm18.042-135.322-7.576 56.819-85.84 5.884-.75-5.622c-2.108-15.813-3.325-31.881-3.627-47.871l96.022-22.764c1.661 5.261 2.282 9.84 1.771 13.554zm-237.867 268.322c-5.51 0-10-4.49-10-10s4.49-10 10-10 10 4.49 10 10-4.49 10-10 10z"/></g></svg>