<svg id="Capa_1" enable-background="new 0 0 508.001 508.001" height="512" viewBox="0 0 508.001 508.001" width="512" xmlns="http://www.w3.org/2000/svg"><g><path d="m54.961 268.001h40v230h-40z" fill="#e7e9ef"/><path d="m188.745 15.042-43.784-5.04v160l48.373-5.569c15.72-1.81 31.424 3.509 42.81 14.497 6.152 5.938 13.652 10.297 21.856 12.704l174.988 51.338 20.053-39.882-25.012-22.487c-58.533-52.624-120.526-101.267-185.562-145.602-16.016-10.918-34.466-17.743-53.722-19.959z" fill="#fff"/><path d="m94.961 115.001h-40v-30c0-11.046 8.954-20 20-20s20 8.954 20 20zm93.78-99.96-43.78-5.04v160l48.37-5.57c6.96-.8 13.93-.2 20.51 1.67l6.31-143.05c-10.02-4.06-20.59-6.76-31.41-8.01zm146.68 87.88-41.32 99.3-36.1-10.59c-8.21-2.4-15.71-6.76-21.86-12.7l45.09-116.73c18.33 13.22 36.39 26.8 54.19 40.72zm117.62 100.171-20.05 39.88-73.09-21.44 35.52-69.53c10.99 9.4 21.86 18.93 32.61 28.6z" fill="#ff5a58"/><path d="m54.961 403.001c-5.51 0-10-4.49-10-10s4.49-10 10-10 10 4.49 10 10-4.49 10-10 10zm200.224-201.772c-9.715-2.851-18.701-8.073-25.986-15.104-9.269-8.946-21.92-13.233-34.722-11.758l-32.556 3.748-15.816 1.821c-5.937.683-11.144-3.958-11.144-9.934v-6.796l-31.131-43.583c-1.669 3.196-5.014 5.378-8.869 5.378h-10v133h10c5.523 0 10 4.477 10 10v230c0 5.523-4.477 10-10 10h-40c-5.523 0-10-4.477-10-10v-59.642c0-5.318 4-9.973 9.306-10.334 5.822-.396 10.694 4.236 10.694 9.976v50h20v-210h-20v69.642c0 5.319-4.001 9.974-9.307 10.334-5.822.395-10.693-4.237-10.693-9.976v-80c0-5.523 4.477-10 10-10h10v-133h-10c-5.523 0-10-4.477-10-10v-29.346c0-16.211 12.592-29.989 28.79-30.63 10.331-.408 19.577 4.44 25.274 12.081l35.936-50.31v-6.796c0-5.976 5.207-10.618 11.144-9.934l12.003 1.382 31.781 3.658c20.843 2.4 40.972 9.88 58.211 21.631 65.172 44.428 127.959 93.694 186.614 146.428l25.012 22.486c3.353 3.015 4.274 7.9 2.249 11.929l-20.053 39.882c-2.17 4.316-7.114 6.463-11.749 5.103zm99.578 8.372 28.152-55.102c-14.24-12.067-28.691-23.922-43.33-35.547l-31.967 76.818zm-117.929-166.337c-2.392-1.631-4.851-3.163-7.367-4.596l-5.31 120.475c2.556 1.095 5.042 2.363 7.443 3.797l37.516-97.128c-10.689-7.647-21.452-15.166-32.282-22.548zm-151.873 41.737c0-5.514-4.486-10-10-10s-10 4.486-10 10v20h20zm50 43.796v-77.591l-27.711 38.795zm69.391 25.474 5.481-124.359c-7.201-2.4-14.66-4.064-22.232-4.936l-32.641-3.757v137.565s42.085-4.704 44.497-4.704c1.64.001 3.272.064 4.895.191zm56.463 27.767 27.497 8.067 34.942-83.967c-12.342-9.566-24.809-18.967-37.387-28.192l-37.814 97.901c3.874 2.748 8.2 4.853 12.762 6.191zm179.86 23.382-19.333-17.38c-7.536-6.775-15.141-13.492-22.811-20.148l-24.237 47.439 53.505 15.697z"/></g></svg>